<svg width="228" height="36" fill="none" xmlns="http://www.w3.org/2000/svg"><g clip-path="url(#clip0)"><path fill-rule="evenodd" clip-rule="evenodd" d="M6.335 3.414H38.49c2.494 0 4.533 2.097 4.533 4.665v16.386c0 2.568-2.039 4.666-4.533 4.666H15.786l-5.288 5.443V17.71l-.016-.72c0-2.074.19-3.476.575-4.18.385-.713.858-1.07 1.408-1.07.276 0 .622.106 1.047.324l1.125-3.232c-.511-.259-1.007-.38-1.471-.38-.661 0-1.267.194-1.826.575-.55.38-1 .948-1.338 1.685V8.816H6.87v20.307h-.535c-2.495.008-4.533-2.09-4.533-4.658V8.08c0-2.568 2.038-4.665 4.533-4.665zM30.927 17.32H19.273c.165 1.061.621 1.912 1.345 2.544.724.623 1.66.94 2.786.94 1.354 0 2.51-.495 3.486-1.475l3.046 1.482c-.756 1.11-1.677 1.936-2.731 2.479-1.062.535-2.321.802-3.785.802-2.267 0-4.108-.737-5.533-2.211-1.424-1.466-2.132-3.313-2.132-5.525 0-2.268.716-4.155 2.132-5.653 1.425-1.499 3.203-2.252 5.352-2.252 2.274 0 4.131.745 5.556 2.243 1.424 1.499 2.14 3.467 2.14 5.922l-.008.704zm-3.612-2.916a3.674 3.674 0 00-1.416-1.984c-.709-.51-1.527-.762-2.463-.762-1.016 0-1.897.284-2.668.859-.48.356-.921.988-1.33 1.887h7.877zm8.554-5.953c.575 0 1.07.21 1.48.632.401.42.606.923.606 1.522 0 .592-.205 1.094-.606 1.515a1.98 1.98 0 01-1.48.632c-.582 0-1.07-.203-1.48-.624a2.11 2.11 0 01-.605-1.523c0-.59.205-1.101.606-1.522a1.98 1.98 0 011.48-.632zm0 11.34c.575 0 1.07.202 1.48.623.401.414.606.924.606 1.515 0 .6-.205 1.102-.606 1.523a1.98 1.98 0 01-1.48.632 1.98 1.98 0 01-1.48-.632 2.122 2.122 0 01-.605-1.523c0-.591.205-1.101.606-1.514a2 2 0 011.48-.624z" fill="#00B0DC"/><path d="M220.079 3.26h1.849v5.556h2.943v1.66h-2.943V23.72h-1.849V10.477h-2.542v-1.66h2.542V3.26zm-18.242 5.555h1.857v2.673c.748-1.02 1.574-1.782 2.479-2.284a6.043 6.043 0 012.967-.753c1.086 0 2.046.283 2.888.85a5.044 5.044 0 011.865 2.285c.402.955.598 2.446.598 4.47v7.663h-1.857v-7.103c0-1.71-.071-2.86-.212-3.435-.228-.98-.646-1.725-1.259-2.22-.614-.493-1.417-.744-2.401-.744-1.133 0-2.148.38-3.037 1.15a5.342 5.342 0 00-1.771 2.843c-.181.737-.267 2.09-.267 4.05v5.46h-1.858V8.815h.008zm-5.493 9.972l1.574.85c-.519 1.037-1.109 1.871-1.794 2.511a7.112 7.112 0 01-2.282 1.45c-.85.332-1.802.494-2.872.494-2.369 0-4.226-.794-5.556-2.39-1.338-1.587-2.007-3.385-2.007-5.386 0-1.887.567-3.572 1.7-5.046 1.432-1.88 3.352-2.82 5.76-2.82 2.479 0 4.462.965 5.934 2.885 1.047 1.352 1.59 3.053 1.605 5.086h-13.087c.04 1.726.575 3.135 1.621 4.237 1.047 1.101 2.338 1.652 3.864 1.652.74 0 1.464-.13 2.164-.397.701-.26 1.299-.607 1.787-1.045.488-.421 1.015-1.118 1.589-2.081zm.016-4.018c-.252-1.02-.614-1.839-1.094-2.454-.48-.616-1.109-1.102-1.896-1.475a5.723 5.723 0 00-2.479-.559c-1.432 0-2.66.47-3.683 1.41-.756.688-1.314 1.709-1.708 3.086h10.86v-.008zm-18.076-5.954h1.857v11.867c0 2.09-.181 3.613-.535 4.585-.488 1.369-1.33 2.422-2.542 3.159-1.204.737-2.652 1.11-4.344 1.11-1.243 0-2.353-.187-3.344-.543-.984-.365-1.795-.85-2.416-1.466-.622-.608-1.189-1.507-1.716-2.682h2.015c.551.989 1.259 1.726 2.132 2.204.866.477 1.952.712 3.235.712 1.275 0 2.345-.243 3.218-.729.874-.486 1.503-1.093 1.873-1.822.37-.737.559-1.92.559-3.556v-.77a7.008 7.008 0 01-2.573 2.098 7.23 7.23 0 01-3.219.738 7.36 7.36 0 01-3.754-1.021 7.168 7.168 0 01-2.715-2.738c-.637-1.15-.96-2.414-.96-3.79 0-1.378.331-2.666 1-3.856a7.45 7.45 0 012.762-2.827c1.18-.689 2.416-1.037 3.722-1.037 1.078 0 2.093.227 3.03.68.936.454 1.841 1.215 2.707 2.276V8.815h.008zm-5.501 1.49c-1.054 0-2.038.26-2.943.787a5.58 5.58 0 00-2.125 2.178 6.117 6.117 0 00-.771 3.006c0 1.636.535 2.98 1.597 4.05 1.063 1.069 2.448 1.603 4.14 1.603 1.715 0 3.092-.526 4.131-1.587 1.039-1.061 1.566-2.455 1.566-4.18 0-1.126-.244-2.122-.716-3.005a5.293 5.293 0 00-2.038-2.09 5.69 5.69 0 00-2.841-.761zm-12.749-1.49h1.858V23.72h-1.858V8.815z" fill="#fff"/><path d="M160.963 2.7c.425 0 .779.154 1.078.47.299.308.449.688.449 1.126 0 .429-.15.802-.449 1.11-.299.315-.661.47-1.078.47-.417 0-.771-.155-1.07-.47a1.54 1.54 0 01-.449-1.11c0-.438.15-.81.449-1.126a1.39 1.39 0 011.07-.47z" fill="#00B0DC"/><path d="M154.581 3.065h1.849V23.72h-1.849V3.065zm-5.462 0h1.858V23.72h-1.858V3.065zm-5.225 15.722l1.574.85c-.52 1.037-1.11 1.871-1.794 2.511a7.117 7.117 0 01-2.283 1.45c-.849.332-1.802.494-2.872.494-2.369 0-4.226-.794-5.556-2.39-1.338-1.587-2.006-3.385-2.006-5.386 0-1.887.566-3.572 1.699-5.046 1.433-1.88 3.353-2.82 5.761-2.82 2.479 0 4.462.965 5.933 2.885 1.047 1.352 1.59 3.053 1.606 5.086h-13.087c.039 1.726.574 3.135 1.621 4.237 1.047 1.101 2.337 1.652 3.864 1.652.74 0 1.464-.13 2.164-.397.7-.26 1.298-.607 1.786-1.045.496-.421 1.023-1.118 1.59-2.081zm.024-4.018c-.252-1.02-.614-1.839-1.094-2.454-.48-.616-1.11-1.102-1.897-1.475a5.723 5.723 0 00-2.479-.559c-1.432 0-2.66.47-3.683 1.41-.755.688-1.314 1.709-1.707 3.086h10.86v-.008zM127.447 3.065V23.72h-1.857v-2.56c-.779.98-1.653 1.71-2.629 2.195-.968.486-2.03.73-3.179.73-2.046 0-3.793-.762-5.249-2.285-1.448-1.53-2.172-3.386-2.172-5.573 0-2.138.732-3.969 2.196-5.491 1.456-1.523 3.218-2.285 5.28-2.285 1.188 0 2.259.26 3.219.778s1.802 1.304 2.534 2.341V3.065h1.857zm-7.468 7.241c-1.039 0-1.999.26-2.865.786-.873.518-1.574 1.256-2.093 2.195a6.151 6.151 0 00-.779 3.005c0 1.045.26 2.041.779 2.997s1.22 1.701 2.101 2.228a5.372 5.372 0 002.833.802c1.015 0 1.983-.26 2.888-.794a5.382 5.382 0 002.101-2.147c.488-.899.74-1.911.74-3.037 0-1.717-.551-3.151-1.652-4.31-1.086-1.15-2.44-1.725-4.053-1.725zM96.362 8.815h1.858v2.673c.747-1.02 1.573-1.782 2.478-2.284a6.043 6.043 0 012.967-.753c1.086 0 2.046.283 2.888.85a5.044 5.044 0 011.865 2.285c.402.955.599 2.446.599 4.47v7.663h-1.858v-7.103c0-1.71-.07-2.86-.212-3.435-.228-.98-.645-1.725-1.259-2.22-.614-.493-1.417-.744-2.4-.744-1.134 0-2.149.38-3.038 1.15a5.342 5.342 0 00-1.77 2.843c-.182.737-.268 2.09-.268 4.05v5.46h-1.858V8.815h.008zM85.369 8.45c2.234 0 4.084.827 5.555 2.488 1.338 1.514 2.007 3.304 2.007 5.37 0 2.073-.708 3.888-2.117 5.443-1.408 1.555-3.226 2.333-5.438 2.333-2.227 0-4.052-.778-5.461-2.333-1.416-1.555-2.117-3.37-2.117-5.443 0-2.057.669-3.848 2.007-5.354 1.463-1.669 3.32-2.503 5.564-2.503zm-.008 1.888c-1.55 0-2.88.583-3.99 1.758-1.11 1.174-1.668 2.6-1.668 4.26 0 1.07.251 2.074.755 3.006.511.923 1.196 1.644 2.062 2.146a5.54 5.54 0 002.84.762 5.468 5.468 0 002.842-.762c.865-.502 1.55-1.223 2.061-2.146a6.23 6.23 0 00.756-3.005c0-1.67-.559-3.087-1.676-4.261-1.11-1.175-2.44-1.758-3.982-1.758zM59.926 8.815h1.858v2.738c.74-1.045 1.581-1.822 2.542-2.333.96-.518 2.03-.77 3.21-.77 2.062 0 3.817.762 5.28 2.285 1.465 1.523 2.196 3.354 2.196 5.492 0 2.187-.724 4.042-2.18 5.573-1.447 1.523-3.202 2.284-5.248 2.284a6.998 6.998 0 01-3.18-.737c-.968-.494-1.841-1.231-2.62-2.212v8.028h-1.858V8.815zm7.469 1.49c-1.614 0-2.967.576-4.069 1.734-1.102 1.159-1.653 2.592-1.653 4.31 0 1.125.244 2.138.74 3.037.488.899 1.196 1.612 2.11 2.146.92.527 1.888.794 2.895.794 1 0 1.944-.267 2.825-.802.882-.526 1.582-1.271 2.102-2.227a6.19 6.19 0 00.779-2.997 6.14 6.14 0 00-.78-3.005c-.519-.948-1.211-1.677-2.093-2.195a5.343 5.343 0 00-2.856-.794zm-10.774.13l-1.196 1.272c-.992-.988-1.975-1.49-2.92-1.49-.606 0-1.125.202-1.558.615-.433.405-.653.891-.653 1.434 0 .478.181.948.535 1.377.354.446 1.102.972 2.243 1.58 1.385.737 2.322 1.45 2.825 2.13.488.688.732 1.474.732 2.34 0 1.224-.417 2.26-1.251 3.111-.834.85-1.881 1.272-3.14 1.272a5.38 5.38 0 01-2.392-.559 5.314 5.314 0 01-1.89-1.547l1.174-1.37c.953 1.102 1.968 1.652 3.03 1.652.748 0 1.385-.25 1.912-.737.52-.494.787-1.069.787-1.733 0-.55-.173-1.037-.519-1.466-.346-.421-1.133-.948-2.353-1.588-1.306-.688-2.203-1.377-2.668-2.05-.472-.671-.708-1.44-.708-2.308 0-1.126.378-2.065 1.125-2.81.756-.746 1.708-1.118 2.857-1.118 1.33.008 2.676.672 4.03 1.992z" fill="#fff"/></g><defs><clipPath id="clip0"><path fill="#fff" transform="translate(1.802 2.7)" d="M0 0h223.494v32.4H0z"/></clipPath></defs></svg>