<svg width="43" height="32" fill="none" xmlns="http://www.w3.org/2000/svg"><path fill-rule="evenodd" clip-rule="evenodd" d="M5.335.414H37.49c2.494 0 4.533 2.097 4.533 4.665v16.386c0 2.568-2.039 4.666-4.533 4.666H14.786l-5.288 5.443V14.71l-.016-.72c0-2.074.19-3.476.575-4.18.385-.713.858-1.07 1.408-1.07.276 0 .622.106 1.047.324l1.125-3.232c-.511-.259-1.007-.38-1.471-.38-.661 0-1.267.194-1.826.575-.55.38-1 .948-1.338 1.685V5.816H5.87v20.307h-.535c-2.495.008-4.533-2.09-4.533-4.658V5.08C.802 2.511 2.84.414 5.335.414zM29.927 14.32H18.273c.165 1.061.621 1.912 1.345 2.544.724.623 1.66.94 2.786.94 1.354 0 2.51-.495 3.486-1.475l3.046 1.482c-.756 1.11-1.677 1.936-2.731 2.479-1.062.535-2.321.802-3.785.802-2.267 0-4.108-.737-5.533-2.211-1.424-1.466-2.132-3.313-2.132-5.525 0-2.268.716-4.155 2.132-5.653 1.425-1.499 3.203-2.252 5.352-2.252 2.274 0 4.131.745 5.556 2.243 1.424 1.499 2.14 3.467 2.14 5.922l-.008.704zm-3.612-2.916A3.674 3.674 0 0024.9 9.421c-.709-.51-1.527-.762-2.463-.762-1.016 0-1.897.284-2.668.859-.48.356-.921.988-1.33 1.887h7.877zm8.554-5.953c.575 0 1.07.21 1.48.632.401.42.606.923.606 1.522 0 .592-.205 1.094-.606 1.515a1.98 1.98 0 01-1.48.632c-.582 0-1.07-.203-1.48-.624a2.11 2.11 0 01-.605-1.523c0-.59.205-1.101.606-1.522a1.98 1.98 0 011.48-.632zm0 11.34c.575 0 1.07.202 1.48.623.401.414.606.924.606 1.515 0 .6-.205 1.102-.606 1.523a1.98 1.98 0 01-1.48.632 1.98 1.98 0 01-1.48-.632 2.122 2.122 0 01-.605-1.523c0-.591.205-1.101.606-1.514a2 2 0 011.48-.624z" fill="#00B0DC"/></svg>