<svg width="32" height="24" fill="none" xmlns="http://www.w3.org/2000/svg"><path fill-rule="evenodd" clip-rule="evenodd" d="M3.519 0H28.48C30.418 0 32 1.616 32 3.593v12.621c0 1.978-1.582 3.594-3.519 3.594H10.856L6.751 24V11.011l-.013-.555c0-1.597.147-2.676.446-3.22.3-.548.666-.823 1.094-.823.214 0 .483.081.812.25l.874-2.49a2.544 2.544 0 00-1.142-.293c-.513 0-.984.15-1.418.443-.427.294-.776.73-1.038 1.298v-1.46H3.934v15.64H3.52C1.582 19.808 0 18.191 0 16.214V3.594C0 1.615 1.582 0 3.519 0zM22.61 10.712h-9.048c.129.817.483 1.472 1.045 1.959.562.48 1.29.723 2.163.723 1.05 0 1.949-.38 2.706-1.135L21.84 13.4c-.586.854-1.3 1.49-2.12 1.909-.824.411-1.802.617-2.938.617-1.76 0-3.189-.567-4.295-1.703-1.106-1.13-1.655-2.552-1.655-4.255 0-1.746.556-3.2 1.655-4.354 1.106-1.154 2.487-1.735 4.155-1.735 1.765 0 3.207.574 4.313 1.729 1.105 1.154 1.661 2.67 1.661 4.56l-.006.543zm-2.804-2.246a2.83 2.83 0 00-1.1-1.529c-.55-.393-1.185-.586-1.912-.586-.788 0-1.472.218-2.07.661-.373.275-.716.761-1.033 1.454h6.115zm6.64-4.586c.447 0 .832.163 1.15.487.31.324.47.711.47 1.173 0 .455-.16.842-.47 1.167a1.543 1.543 0 01-1.15.486 1.54 1.54 0 01-1.148-.48 1.618 1.618 0 01-.47-1.173c0-.456.159-.849.47-1.173a1.543 1.543 0 011.149-.487zm0 8.735c.447 0 .832.155 1.15.48.31.318.47.711.47 1.166 0 .462-.16.849-.47 1.173a1.543 1.543 0 01-1.15.487c-.451 0-.83-.162-1.148-.487a1.628 1.628 0 01-.47-1.172c0-.456.159-.849.47-1.167a1.56 1.56 0 011.149-.48z" fill="#00B0DC"/></svg>